<svg xmlns="http://www.w3.org/2000/svg" viewBox="0 0 1200 900" role="img" aria-label="Lab notebook and plant specimens">
  <defs>
    <linearGradient id="paper" x1="0" x2="1" y1="0" y2="1">
      <stop offset="0" stop-color="#fbfbf6"/>
      <stop offset="1" stop-color="#e3efe8"/>
    </linearGradient>
    <filter id="grain"><feTurbulence baseFrequency="0.8" numOctaves="4" seed="34"/><feColorMatrix type="saturate" values="0"/><feComponentTransfer><feFuncA type="table" tableValues="0 0.12"/></feComponentTransfer></filter>
  </defs>
  <rect width="1200" height="900" fill="#e8f1ed"/>
  <rect x="0" y="560" width="1200" height="340" fill="#d8c7ad"/>
  <rect x="180" y="250" width="426" height="330" rx="14" fill="#f8f5ea" transform="rotate(-7 393 415)"/>
  <rect x="224" y="300" width="260" height="12" fill="#8ea79c" opacity="0.75" transform="rotate(-7 354 306)"/>
  <rect x="228" y="346" width="310" height="8" fill="#c97865" opacity="0.55" transform="rotate(-7 383 350)"/>
  <rect x="680" y="244" width="272" height="408" rx="18" fill="#f7fbf8" opacity="0.72"/>
  <path d="M808 568 C788 506 786 444 820 384 C852 456 856 512 830 582" fill="none" stroke="#56796d" stroke-width="8" stroke-linecap="round"/>
  <ellipse cx="784" cy="438" rx="28" ry="68" fill="#8fb0a3" transform="rotate(-32 784 438)"/>
  <ellipse cx="846" cy="462" rx="26" ry="72" fill="#7fa395" transform="rotate(26 846 462)"/>
  <ellipse cx="796" cy="536" rx="22" ry="58" fill="#9dbbae" transform="rotate(-48 796 536)"/>
  <g fill="none" stroke="#b8cfc6" stroke-width="12" opacity="0.48">
    <path d="M1010 180 C1074 250 1066 348 1018 418"/>
    <path d="M1062 210 C1118 294 1116 380 1060 462"/>
  </g>
  <rect width="1200" height="900" filter="url(#grain)" opacity="0.35"/>
</svg>
