<svg xmlns="http://www.w3.org/2000/svg" viewBox="0 0 1200 900" role="img" aria-label="Quiet campus corridor after rain">
  <defs>
    <linearGradient id="bg" x1="0" x2="1" y1="0" y2="1">
      <stop offset="0" stop-color="#edf5f2"/>
      <stop offset="1" stop-color="#cfe0df"/>
    </linearGradient>
    <filter id="grain"><feTurbulence baseFrequency="0.86" numOctaves="3" seed="21"/><feColorMatrix type="saturate" values="0"/><feComponentTransfer><feFuncA type="table" tableValues="0 0.12"/></feComponentTransfer></filter>
  </defs>
  <rect width="1200" height="900" fill="url(#bg)"/>
  <polygon points="0,720 1200,590 1200,900 0,900" fill="#d7cbb8"/>
  <polygon points="90,0 295,0 180,720 0,745" fill="#f7f8f2"/>
  <polygon points="330,0 518,0 474,690 246,718" fill="#f8fbf8"/>
  <polygon points="560,0 704,0 752,650 520,684" fill="#f8fbf8"/>
  <polygon points="760,0 1200,0 1200,582 818,642" fill="#e7efec"/>
  <path d="M0 748 L1200 594" stroke="#8aa69e" stroke-width="8" opacity="0.55"/>
  <path d="M182 720 L632 662 L1200 720" stroke="#8f9c98" stroke-width="5" opacity="0.3" fill="none"/>
  <g opacity="0.55" fill="#aac6bd">
    <rect x="870" y="120" width="74" height="260" rx="6"/>
    <rect x="980" y="92" width="88" height="310" rx="6"/>
    <rect x="1096" y="148" width="62" height="220" rx="6"/>
  </g>
  <rect width="1200" height="900" filter="url(#grain)" opacity="0.35"/>
</svg>
